# xmcd CD database file generated by Grip 3.3.1
# 
# Track frame offsets:
#       150
#       16156
#       34371
#       54353
#       71730
#       95308
#       109239
#       126939
#       141896
#       168676
#       193705
# 
# Disc length: 2752 seconds
# 
# Revision: 1
# Processed by: cddbd v1.5.2PL0 Copyright (c) Steve Scherf et al.
# Submitted via: Grip 3.3.1
# 
DISCID=9d0abe0b
DTITLE=Larry Garner - Standing Room Only
DYEAR=1998
DGENRE=Blues
TTITLE0=A Driving Woman
TTITLE1=Do Your Personal Thing
TTITLE2=Strangers Blues
TTITLE3=Keep The Money
TTITLE4=Don't Start Crying
TTITLE5=Out In The Country
TTITLE6=I'll Run Cross You
TTITLE7=PMS
TTITLE8=Drifter
TTITLE9=Cold Chills
TTITLE10=Last Encore
EXTD=
EXTT0=
EXTT1=
EXTT2=
EXTT3=
EXTT4=
EXTT5=
EXTT6=
EXTT7=
EXTT8=
EXTT9=
EXTT10=
PLAYORDER=
